<svg width="569" height="117" viewBox="0 0 569 117" fill="none" xmlns="http://www.w3.org/2000/svg">
<path d="M54.8125 82.8281L56.8516 77.7656H74.1484L76.1875 82.8281H54.8125ZM50.875 92.9531L52.8438 87.8906H78.0859L80.2656 92.9531H50.875ZM46.9375 103.078L48.9062 98.0156H82.0938L84.2031 103.078H46.9375ZM5.80469 117H0.320312L46.375 0.5625H51.8594L97.8438 117H92.4297L49.1172 7.38281L5.80469 117ZM49.75 19.4062L52.6328 25.875L16.6328 117H11.2188L49.75 19.4062ZM55.375 32.7656L58.0469 39.7266L27.6016 117H22.1172L55.375 32.7656ZM60.7188 46.6875L63.3906 53.7891L38.4297 117H33.0156L60.7188 46.6875ZM130.539 117H125.055L79.0703 0.5625H84.4844L130.539 117ZM73.5859 0.5625L119.641 117H114.227L68.1719 0.5625H73.5859ZM62.6875 0.5625L108.742 117H103.258L57.2734 0.5625H62.6875ZM169.773 0.5625H174.836V117H169.773V0.5625ZM159.648 0.5625H164.711V117H159.648V0.5625ZM149.523 0.5625H154.586V117H149.523V0.5625ZM139.398 0.5625H144.461V117H139.398V0.5625ZM272.008 74.5312L277.07 64.9688V117H272.008V74.5312ZM282.133 55.125L287.195 45.5625V117H282.133V55.125ZM292.258 36L297.32 26.3672V117H292.258V36ZM258.297 72.1406L255.414 66.8672L290.289 0.5625H295.984L258.297 72.1406ZM252.461 61.1016L249.508 55.7578L278.758 0.5625H284.523L252.461 61.1016ZM218.57 65.5312L223.633 75.0938V117H218.57V65.5312ZM208.445 46.2656L213.508 55.8281V117H208.445V46.2656ZM198.32 27L203.383 36.6328V117H198.32V27ZM239.242 86.625H233.547L193.258 10.1953V117H188.195V0.5625H193.891L239.242 86.625ZM250.703 86.625H244.938L199.656 0.5625H205.422L250.703 86.625ZM302.383 10.1953L262.094 86.625H256.328L211.117 0.5625H216.812L259.281 81.2812L301.68 0.5625H307.445V117H302.383V10.1953ZM371.078 82.8281L373.117 77.7656H390.414L392.453 82.8281H371.078ZM367.141 92.9531L369.109 87.8906H394.352L396.531 92.9531H367.141ZM363.203 103.078L365.172 98.0156H398.359L400.469 103.078H363.203ZM322.07 117H316.586L362.641 0.5625H368.125L414.109 117H408.695L365.383 7.38281L322.07 117ZM366.016 19.4062L368.898 25.875L332.898 117H327.484L366.016 19.4062ZM371.641 32.7656L374.312 39.7266L343.867 117H338.383L371.641 32.7656ZM376.984 46.6875L379.656 53.7891L354.695 117H349.281L376.984 46.6875ZM446.805 117H441.32L395.336 0.5625H400.75L446.805 117ZM389.852 0.5625L435.906 117H430.492L384.438 0.5625H389.852ZM378.953 0.5625L425.008 117H419.523L373.539 0.5625H378.953ZM538.352 60.9609L533.289 52.5938V0.5625H538.352V60.9609ZM548.477 77.5547L543.414 69.0469V0.5625H548.477V77.5547ZM558.602 94.3594L553.539 85.7812V0.5625H558.602V94.3594ZM486.039 56.6016L491.102 64.9688V117H486.039V56.6016ZM475.914 40.0078L480.977 48.5156V117H475.914V40.0078ZM465.789 23.2031L470.852 31.7812V117H465.789V23.2031ZM467.547 0.5625H473.453L545.031 117H539.125L467.547 0.5625ZM479.5 0.5625H485.477L556.984 117H550.938L479.5 0.5625ZM491.383 0.5625H497.289L563.664 108.773V0.5625H568.727V117C568.727 117 566.734 117 562.75 117L491.383 0.5625ZM460.727 8.78906V117H455.664V0.5625C455.664 0.5625 457.68 0.5625 461.711 0.5625L533.078 117H527.242L460.727 8.78906Z" stroke="#621AD7" stroke-width="4" fill="none"/>
</svg>
